<?xml version="1.0" encoding="iso-8859-1"?>
<!-- Generator: Adobe Illustrator 16.0.0, SVG Export Plug-In . SVG Version: 6.00 Build 0)  -->
<!DOCTYPE svg PUBLIC "-//W3C//DTD SVG 1.1//EN" "http://www.w3.org/Graphics/SVG/1.1/DTD/svg11.dtd" [
	<!ENTITY ns_flows "http://ns.adobe.com/Flows/1.0/">
	<!ENTITY ns_extend "http://ns.adobe.com/Extensibility/1.0/">
	<!ENTITY ns_ai "http://ns.adobe.com/AdobeIllustrator/10.0/">
	<!ENTITY ns_graphs "http://ns.adobe.com/Graphs/1.0/">
]>
<svg version="1.1" id="Layer_1" xmlns:x="&ns_extend;" xmlns:i="&ns_ai;" xmlns:graph="&ns_graphs;"
	 xmlns="http://www.w3.org/2000/svg" xmlns:xlink="http://www.w3.org/1999/xlink" xmlns:a="http://ns.adobe.com/AdobeSVGViewerExtensions/3.0/"
	 x="0px" y="0px" width="469.641px" height="58.778px" viewBox="0 0 469.641 58.778"
	 style="enable-background:new 0 0 469.641 58.778;" xml:space="preserve">
<g>
	<path style="fill:#3E82F7;" d="M51.174,29.799c0.195,13.245-10.373,23.877-23.745,23.615C14.382,53.676,3.879,43.174,4.073,30.061
		C3.879,16.818,14.511,6.055,27.69,6.316C40.866,6.121,51.369,16.623,51.174,29.799z M44.39,29.865
		c0-10.11-7.437-17.354-16.766-17.354c-9.33,0-16.766,7.372-16.766,17.484c-0.195,9.783,7.436,17.416,16.635,17.223
		C36.692,47.412,44.583,39.588,44.39,29.865z"/>
	<path style="fill:#FDBD00;" d="M64.252,50.014c-0.957-0.422-1.184-0.879-0.736-1.893L80.797,8.972
		c0.448-1.014,0.937-1.154,1.892-0.731l3.342,1.475c0.954,0.421,1.183,0.879,0.735,1.892L69.484,50.758
		c-0.445,1.012-0.937,1.152-1.891,0.732L64.252,50.014z"/>
	<path style="fill:#D4145A;" d="M95.559,52.695h-3.392c-0.849,0-1.307-0.26-1.307-0.848c0-0.195,0.132-0.586,0.328-1.107
		l19.634-41.359c1.307-2.673,1.697-3.26,2.545-3.26c0.783,0,1.111,0.587,2.415,3.26l19.83,41.359
		c0.196,0.521,0.327,0.912,0.327,1.107c0,0.588-0.458,0.848-1.37,0.848h-3.654c-1.37,0-1.827-0.39-2.611-1.955l-15.068-32.486
		L98.167,50.74C97.45,52.306,96.928,52.695,95.559,52.695z"/>
</g>
<g>
	<path style="fill:#FFFFFF;" d="M192.722,14.541c0.638,0,0.875,0.2,0.875,0.876v26.099c0,0.875-0.278,1.313-0.796,1.313
		c-0.438,0-0.835-0.28-1.671-1.233l-16.153-19.058v18.978c0,0.676-0.238,0.875-0.875,0.875h-2.228c-0.638,0-0.875-0.199-0.875-0.875
		V15.417c0-0.914,0.238-1.313,0.835-1.313c0.439,0,0.835,0.279,1.63,1.234l16.154,19.057V15.417c0-0.676,0.238-0.876,0.875-0.876
		H192.722z"/>
	<path style="fill:#FFFFFF;" d="M247.545,28.426c0.119,8.077-6.325,14.562-14.481,14.403c-7.958,0.158-14.363-6.247-14.244-14.244
		c-0.119-8.076,6.366-14.642,14.402-14.481C241.258,13.985,247.664,20.39,247.545,28.426z M243.407,28.467
		c0-6.167-4.535-10.585-10.225-10.585c-5.689,0-10.225,4.496-10.225,10.665c-0.119,5.967,4.536,10.621,10.146,10.502
		C238.713,39.168,243.525,34.395,243.407,28.467z"/>
	<path style="fill:#FFFFFF;" d="M281.919,14.541c9.31,0,15.039,5.41,15.039,13.607c0,8.634-6.009,14.242-15.597,14.242h-7.719
		c-0.635,0-0.874-0.199-0.874-0.875V15.417c0-0.676,0.239-0.876,0.874-0.876H281.919z M276.746,38.174
		c0,0.317,0.119,0.438,0.477,0.438h4.219c7.201,0,11.379-3.938,11.379-10.304c0-6.008-4.178-9.986-11.221-9.986h-4.377
		c-0.357,0-0.477,0.12-0.477,0.437V38.174z"/>
	<path style="fill:#FFFFFF;" d="M323.056,42.391c-0.638,0-0.876-0.199-0.876-0.875V15.417c0-0.676,0.238-0.876,0.876-0.876h7.599
		c7.559,0,11.338,2.866,11.338,8.633c0,3.82-2.029,6.287-5.41,7.44l6.843,10.583c0.199,0.278,0.317,0.557,0.317,0.756
		c0,0.318-0.277,0.438-0.874,0.438h-2.348c-0.915,0-1.153-0.159-1.751-1.074L331.451,29.7c-0.161-0.2-0.24-0.397-0.24-0.559
		c0-0.197,0.199-0.317,0.597-0.357c4.019-0.438,6.009-2.228,6.009-5.371c0-3.62-2.588-5.211-7.361-5.211h-3.818
		c-0.359,0-0.479,0.119-0.479,0.478v22.836c0,0.676-0.239,0.875-0.875,0.875H323.056z"/>
	<path style="fill:#FFFFFF;" d="M368.21,42.391c-0.638,0-0.876-0.199-0.876-0.875V15.417c0-0.676,0.238-0.876,0.876-0.876h2.228
		c0.637,0,0.876,0.2,0.876,0.876v26.099c0,0.676-0.239,0.875-0.876,0.875H368.21z"/>
	<path style="fill:#FFFFFF;" d="M396.734,42.391c-0.756,0-1.113-0.199-1.113-0.597c0-0.159,0.119-0.397,0.318-0.756l14.084-22.717
		h-12.612c-0.636-0.041-0.875-0.239-0.875-0.876v-2.028c0-0.676,0.239-0.876,0.875-0.876h17.902c0.757,0,1.116,0.2,1.116,0.598
		c0,0.159-0.121,0.397-0.319,0.756l-14.123,22.717h13.168c0.676,0,0.915,0.199,0.915,0.875v2.029c0,0.676-0.239,0.875-0.915,0.875
		H396.734z"/>
	<path style="fill:#FFFFFF;" d="M440.537,42.391h-2.068c-0.518,0-0.797-0.159-0.797-0.517c0-0.12,0.081-0.358,0.199-0.677
		l11.975-25.225c0.797-1.631,1.035-1.987,1.553-1.987c0.479,0,0.677,0.356,1.472,1.987l12.095,25.225
		c0.121,0.318,0.199,0.557,0.199,0.677c0,0.357-0.278,0.517-0.836,0.517H462.1c-0.835,0-1.113-0.239-1.59-1.193l-9.19-19.813
		l-9.19,19.813C441.691,42.151,441.373,42.391,440.537,42.391z"/>
</g>
</svg>
